<svg width="200" height="200" viewBox="0 0 200 200" fill="none" xmlns="http://www.w3.org/2000/svg">
<path d="M141.637 80.0278C157.835 85.7396 169.444 101.181 169.444 119.333C169.444 126.285 167.736 133.002 164.519 139.002C164.227 139.545 163.706 140.455 162.941 141.762L165.319 150.479C166.378 154.368 162.812 157.936 158.923 156.875L150.193 154.493L149.179 155.09C142.714 158.968 135.316 161.011 127.778 161C115.083 161 103.715 155.323 96.0711 146.37C93.0231 146.864 89.9402 147.112 86.8523 147.111C76.5433 147.111 66.6266 144.368 57.9669 139.25C57.6683 139.073 56.9235 138.642 55.7482 137.965L42.6388 141.49C38.7464 142.536 35.1909 138.955 36.2673 135.071L39.8141 122.253C38.927 120.786 38.064 119.303 37.2256 117.807C32.8386 109.753 30.545 100.727 30.5555 91.5555C30.5555 60.8559 55.7777 36 86.8523 36C112.88 36 135.352 53.5799 141.51 78.2031C141.665 78.816 141.701 79.4323 141.637 80.026V80.0278ZM130.552 77.7569C124.557 59.3351 107.028 46.4167 86.8523 46.4167C61.4964 46.4167 40.9721 66.6423 40.9721 91.5555C40.9721 99.0868 42.8436 106.34 46.3749 112.828C46.8436 113.689 48.0311 115.71 49.894 118.809C50.2578 119.414 50.4947 120.088 50.5902 120.787C50.6857 121.487 50.6379 122.199 50.4495 122.88L48.7377 129.064L55.1232 127.347C56.454 126.989 57.8723 127.174 59.0676 127.859C61.3905 129.193 62.7742 129.991 63.2673 130.283C70.4109 134.498 78.5577 136.713 86.8523 136.694C87.8541 136.694 88.8523 136.663 89.8454 136.601C87.3761 131.179 86.1025 125.29 86.111 119.333C86.111 96.3212 104.766 77.6667 127.778 77.6667C128.71 77.6667 129.635 77.6979 130.552 77.7569ZM152.314 142.382C152.131 141.709 152.084 141.006 152.177 140.315C152.271 139.623 152.502 138.958 152.858 138.358C153.706 136.944 154.533 135.517 155.338 134.078C157.769 129.544 159.037 124.478 159.028 119.333C159.028 102.075 145.036 88.0833 127.778 88.0833C110.519 88.0833 96.5277 102.075 96.5277 119.333C96.5277 136.592 110.519 150.583 127.778 150.583C133.429 150.594 138.975 149.063 143.821 146.156C144.18 145.941 145.17 145.363 146.835 144.392C147.432 144.045 148.093 143.82 148.778 143.73C149.463 143.64 150.16 143.688 150.826 143.87L152.871 144.427L152.314 142.382ZM70.486 82.875C68.6442 82.875 66.8779 82.1433 65.5755 80.841C64.2732 79.5387 63.5416 77.7723 63.5416 75.9305C63.5416 74.0888 64.2732 72.3224 65.5755 71.0201C66.8779 69.7177 68.6442 68.9861 70.486 68.9861C72.3278 68.9861 74.0941 69.7177 75.3965 71.0201C76.6988 72.3224 77.4304 74.0888 77.4304 75.9305C77.4304 77.7723 76.6988 79.5387 75.3965 80.841C74.0941 82.1433 72.3278 82.875 70.486 82.875ZM101.736 82.875C99.8942 82.875 98.1279 82.1433 96.8255 80.841C95.5232 79.5387 94.7916 77.7723 94.7916 75.9305C94.7916 74.0888 95.5232 72.3224 96.8255 71.0201C98.1279 69.7177 99.8942 68.9861 101.736 68.9861C103.578 68.9861 105.344 69.7177 106.646 71.0201C107.949 72.3224 108.68 74.0888 108.68 75.9305C108.68 77.7723 107.949 79.5387 106.646 80.841C105.344 82.1433 103.578 82.875 101.736 82.875ZM115.625 115.861C114.244 115.861 112.919 115.312 111.942 114.336C110.965 113.359 110.417 112.034 110.417 110.653C110.417 109.271 110.965 107.947 111.942 106.97C112.919 105.993 114.244 105.444 115.625 105.444C117.006 105.444 118.331 105.993 119.308 106.97C120.284 107.947 120.833 109.271 120.833 110.653C120.833 112.034 120.284 113.359 119.308 114.336C118.331 115.312 117.006 115.861 115.625 115.861ZM139.93 115.861C138.549 115.861 137.224 115.312 136.248 114.336C135.271 113.359 134.722 112.034 134.722 110.653C134.722 109.271 135.271 107.947 136.248 106.97C137.224 105.993 138.549 105.444 139.93 105.444C141.312 105.444 142.637 105.993 143.613 106.97C144.59 107.947 145.139 109.271 145.139 110.653C145.139 112.034 144.59 113.359 143.613 114.336C142.637 115.312 141.312 115.861 139.93 115.861Z" fill="#333333"/>
</svg>
