<?xml version="1.0" standalone="no"?><!DOCTYPE svg PUBLIC "-//W3C//DTD SVG 1.1//EN" "http://www.w3.org/Graphics/SVG/1.1/DTD/svg11.dtd"><svg t="1776155983790" class="icon" viewBox="0 0 1024 1024" version="1.1" xmlns="http://www.w3.org/2000/svg" p-id="10934" xmlns:xlink="http://www.w3.org/1999/xlink" width="200" height="200"><path d="M839.68 709.12c-0.512 0-1.024-0.512-1.536-0.512-1.536-0.512-4.608-2.048-7.168-4.096l-1.536-1.024c-64-35.328-113.152-58.88-143.36-58.88h-0.512c-45.056 0-67.584 26.624-79.872 41.472l-0.512 0.512-1.536 2.048c-6.656 7.68-19.968 23.04-27.648 24.064-10.24 1.024-15.872 1.536-59.904-35.328-66.56-56.32-138.24-132.608-144.384-148.992-1.536-14.848 11.264-36.864 21.504-42.496 0.512 0 0.512-0.512 1.024-0.512l1.024-0.512c16.384-8.704 45.568-25.6 52.224-75.264 6.144-45.568-31.744-145.408-48.128-164.864-7.68-9.216-31.232-37.888-78.848-38.4h-0.512c-38.912 0-82.432 26.112-110.592 66.048C181.76 312.32 155.648 358.4 160.768 438.272c2.56 39.936 9.728 145.408 164.864 302.08 113.152 114.688 240.128 183.296 338.944 183.296 18.432 0 34.816-2.048 49.664-6.656 110.592-35.328 163.84-116.224 162.304-151.552-1.536-26.112-12.8-43.52-36.864-56.32zM320 254.976c22.528 0 33.28 9.728 41.472 20.48l0.512 0.512c9.216 11.264 40.96 97.28 36.864 127.488-3.072 25.6-14.336 31.744-28.16 39.936-0.512 0-0.512 0.512-1.024 0.512l-1.024 0.512c-25.088 14.336-50.176 55.296-45.568 90.624 5.632 46.08 154.624 174.08 160.768 179.2 51.712 43.52 67.584 49.152 96.256 46.592 27.136-3.072 47.616-26.624 59.904-40.96l1.536-1.536 1.024-1.024c10.24-11.776 20.48-24.064 43.008-24.064 16.384 0 56.32 17.408 119.296 51.712h0.512c5.12 3.072 8.704 5.632 12.288 6.656 9.728 5.12 9.728 7.68 10.24 14.336-1.536 9.728-31.232 73.216-128 103.424-65.024 20.48-199.168-22.016-339.456-163.84-141.824-143.872-148.48-236.544-150.528-271.36-4.096-65.536 16.384-100.864 40.448-134.656 17.92-25.6 47.616-44.544 69.632-44.544z" fill="#040000" p-id="10935"></path><path d="M395.776 205.824c0.512 0 0.512 0 0 0 2.56 0.512 45.568 13.312 69.632 53.76 18.944 31.232 22.016 71.68 9.216 120.832v0.512c-2.56 11.776 4.096 24.064 15.36 28.16 2.56 1.024 5.12 1.536 8.192 1.536 11.264 0 21.504-8.192 23.04-19.456 15.36-60.928 10.752-113.664-14.848-156.672C470.528 173.568 407.04 158.72 406.528 158.72c-6.144-1.536-12.8 0-17.92 3.072-5.632 3.584-9.728 9.216-10.752 15.36-3.072 12.8 5.12 26.112 17.92 28.672z" fill="#040000" p-id="10936"></path><path d="M403.456 131.072c0.512 0 0.512 0 1.024 0.512 4.096 1.536 87.04 30.208 126.464 107.008 26.112 51.2 28.16 112.64 5.12 182.784-4.096 11.776 2.048 25.088 13.312 29.696 4.096 2.048 7.68 2.048 9.728 2.048 7.68 0 15.36-4.096 21.504-11.264 1.536-1.536 2.048-3.072 3.072-5.12 26.624-83.456 23.552-157.184-8.704-220.16-45.056-86.528-129.536-122.368-154.624-131.072H419.84h-0.512c-12.8-4.096-26.624 2.56-30.72 15.36-2.048 6.144-1.536 12.8 1.536 18.432 2.048 5.632 7.168 9.728 13.312 11.776z" fill="#040000" p-id="10937"></path></svg>