<svg width="200" height="200" viewBox="0 0 200 200" fill="none" xmlns="http://www.w3.org/2000/svg">
<path d="M163.858 45.8333H33.3334C32.6251 45.8333 31.9334 45.9208 31.2709 46.0917L94.4917 109.308C95.2731 110.089 96.3327 110.528 97.4376 110.528C98.5424 110.528 99.602 110.089 100.383 109.308L163.858 45.8333ZM172.871 48.6042L121.954 99.5208L173.308 150.871C174.371 149.471 175 147.725 175 145.833V54.1667C175 52.0292 174.196 50.0833 172.875 48.6042H172.871ZM164.817 154.167L116.067 105.412L106.275 115.204C105.114 116.365 103.736 117.286 102.22 117.914C100.703 118.543 99.0772 118.866 97.4355 118.866C95.7938 118.866 94.1682 118.543 92.6515 117.914C91.1348 117.286 89.7567 116.365 88.5959 115.204L78.8084 105.412L30.5417 153.688C31.4167 153.996 32.3542 154.167 33.3376 154.167H164.821H164.817ZM25.1292 147.308L72.9167 99.5167L25.3084 51.9167C25.1035 52.6491 24.9998 53.4061 25.0001 54.1667V145.833C25.0001 146.333 25.0417 146.829 25.1292 147.308ZM33.3334 37.5H166.667C168.855 37.5 171.023 37.9311 173.045 38.7687C175.067 39.6063 176.904 40.8339 178.452 42.3816C180 43.9292 181.227 45.7665 182.065 47.7886C182.902 49.8107 183.333 51.978 183.333 54.1667V145.833C183.333 148.022 182.902 150.189 182.065 152.211C181.227 154.233 180 156.071 178.452 157.618C176.904 159.166 175.067 160.394 173.045 161.231C171.023 162.069 168.855 162.5 166.667 162.5H33.3334C31.1447 162.5 28.9775 162.069 26.9554 161.231C24.9333 160.394 23.0959 159.166 21.5483 157.618C20.0007 156.071 18.773 154.233 17.9354 152.211C17.0978 150.189 16.6667 148.022 16.6667 145.833V54.1667C16.6667 51.978 17.0978 49.8107 17.9354 47.7886C18.773 45.7665 20.0007 43.9292 21.5483 42.3816C23.0959 40.8339 24.9333 39.6063 26.9554 38.7687C28.9775 37.9311 31.1447 37.5 33.3334 37.5Z" fill="#333333"/>
</svg>
